<svg id="Layer_1" data-name="Layer 1" xmlns="http://www.w3.org/2000/svg" viewBox="0 0 1553.53 293.31"><defs><style>.cls-1{fill:#198754;}</style></defs><path class="cls-1" d="M211.36,588.94V421.31H183.24v-28h79.88q35.19,0,52.71,5t29.33,22.58Q357,438.51,357,462.45q0,19.13-7.8,34.32t-19.29,22.42A70.66,70.66,0,0,1,304,528.91q-14.38,2.49-43.48,2.49H245.11v57.54H274v28h-90.8v-28Zm33.75-84.54H264.4q32.94,0,45.65-9.4t12.69-33.19q0-15.1-6.75-25.07T299.28,424q-10-2.73-33.27-2.73h-20.9Z" transform="translate(-183.24 -393.34)"/><path class="cls-1" d="M529.27,589.74v27.17H475.91v-19q-22.18,21.54-49.5,21.54a54,54,0,0,1-36.89-13.83q-15.66-13.81-15.67-35.35,0-21.7,16.64-36T430.59,520q21.86,0,42.27,13.18V517.74q0-11.89-2.25-18.32t-10.53-11.57q-8.28-5.14-21.62-5.15-23,0-33.27,18.33l-29.25-7.72Q395.38,457,443.12,457q17.52,0,30.3,4.74t19,12.21a40.21,40.21,0,0,1,8.44,16.16q2.18,8.67,2.17,27.64v72Zm-56.41-30.69q-19.77-15.43-40-15.43-12.7,0-21.22,7.39a24.14,24.14,0,0,0-8.52,19.13,24.73,24.73,0,0,0,7.48,18.32q7.47,7.39,20.33,7.39,22.17,0,41.95-18.64Z" transform="translate(-183.24 -393.34)"/><path class="cls-1" d="M564.14,659.5v-171H538V461.33h56.73v24.43Q617.5,458.91,650,458.92q32.79,0,54.24,22.5t21.46,58.5q0,37.77-23.31,59.63t-53,21.86q-30.87,0-54.65-23.79V659.5H624.9v27.16H535.7V659.5ZM594.2,541.37A59.12,59.12,0,0,0,599.5,566a47.52,47.52,0,0,0,16.88,19.69q11.57,8,27.16,8,21.86,0,36.08-14.62t14.23-40.19q0-24.9-14.87-38.89t-33.83-14q-20.25,0-35.6,15.19T594.2,541.37Z" transform="translate(-183.24 -393.34)"/><path class="cls-1" d="M915.64,546.83H784.81q2.9,21.54,17,34.88T838,595.05q32,0,50.63-25.72l27,11.9a81.47,81.47,0,0,1-34.23,30.29,102.46,102.46,0,0,1-44,9.89q-35.68,0-61-22.26t-25.32-60q0-35.85,24.67-59T832.39,457q31.33,0,56.81,22.58T915.64,546.83Zm-31.5-22.18q-3.21-16.39-17-29.65t-33.91-13.26q-18.32,0-31.34,12t-15.91,30.94Z" transform="translate(-183.24 -393.34)"/><path class="cls-1" d="M966.43,589.74V488.49H935.09V461.33h55.77v35a61.84,61.84,0,0,1,14.3-22.66q9.17-9,19.37-11.89t27.88-2.89h8v30.85h-6.11q-23.29,0-34.79,4.67t-17,16.95Q997,523.69,997,555.51v34.23h33.91v27.17H935.09V589.74Z" transform="translate(-183.24 -393.34)"/><path class="cls-1" d="M1100,588.94V421.31H1072.5v-28h74.42q30.69,0,46,3.7t27.09,18.72q11.73,15,11.73,35.28a56.76,56.76,0,0,1-7,28.13,44.83,44.83,0,0,1-20.49,19q18.63,6.44,28.68,21.3a59.26,59.26,0,0,1,10,34,61,61,0,0,1-7.47,30.05,54.48,54.48,0,0,1-19.85,20.9,78.75,78.75,0,0,1-27.08,10q-14.72,2.58-40.1,2.58h-76v-28Zm33.75-102.54h21q24.12,0,33.68-8.44t9.56-24.83q0-31.81-43.24-31.82h-21Zm0,102.54h12.7q24.9,0,36.48-2.49a32,32,0,0,0,18.89-11.73q7.31-9.24,7.31-23.71,0-13.17-7-22.1a33.32,33.32,0,0,0-18-11.89q-11-3-31.1-3h-19.29Z" transform="translate(-183.24 -393.34)"/><path class="cls-1" d="M1439.11,589.74v27.17h-57.38V599.07q-26.84,20.4-51.43,20.41-15.58,0-25.8-6.83A32.61,32.61,0,0,1,1290.92,595q-3.37-10.86-3.37-35V488.49h-22V461.33h52.56v94.82q0,17.21,1,23.15a15.55,15.55,0,0,0,5.63,9.8,17.77,17.77,0,0,0,11.73,3.86q21.21,0,45.32-20.25V488.49h-27.48V461.33h58V589.74Z" transform="translate(-183.24 -393.34)"/><path class="cls-1" d="M1476.56,589.74V420.5h-27.65V393.34h58.18v196.4h23.79v27.17h-82V589.74Z" transform="translate(-183.24 -393.34)"/><path class="cls-1" d="M1547.11,616.91V589.74h27.65V420.5h-27.65V393.34h57.54v90q23-26.36,56.41-26.36,32.14,0,53.93,22.1t21.77,58.26q0,34.71-21.29,58.42t-54.57,23.71a72.61,72.61,0,0,1-34.07-8q-15.43-8-22.18-17.84v23.31Zm58.5-77.47q0,24.27,14.87,38.49t34.32,14.22q20.4,0,35.19-15.1t14.79-40.51q0-24.58-14.71-38.17a49.18,49.18,0,0,0-34.47-13.58q-19.45,0-34.72,14.07T1605.61,539.44Z" transform="translate(-183.24 -393.34)"/></svg>